<svg xmlns="http://www.w3.org/2000/svg" xmlns:xlink="http://www.w3.org/1999/xlink" width="1080" zoomAndPan="magnify" viewBox="0 0 810 809.999993" height="1080" preserveAspectRatio="xMidYMid meet" version="1.0"><path fill="#000000" d="M 519.546875 290.449219 C 488.949219 259.851562 448.269531 243 404.996094 243 C 361.726562 243 321.046875 259.851562 290.449219 290.449219 C 259.851562 321.046875 243 361.726562 243 404.996094 C 243 448.269531 259.851562 488.949219 290.449219 519.546875 C 321.046875 550.144531 361.726562 566.996094 404.996094 566.996094 C 448.269531 566.996094 488.949219 550.144531 519.546875 519.546875 C 550.144531 488.949219 566.996094 448.269531 566.996094 404.996094 C 566.996094 361.726562 550.144531 321.046875 519.546875 290.449219 Z M 297.800781 297.800781 C 326.433594 269.164062 364.503906 253.394531 404.996094 253.394531 C 445.492188 253.394531 483.5625 269.164062 512.195312 297.800781 C 540.828125 326.433594 556.597656 364.503906 556.597656 404.996094 C 556.597656 438.660156 545.691406 470.640625 525.566406 496.925781 C 509.550781 474.53125 483.972656 461.296875 456.195312 461.296875 L 353.796875 461.296875 C 326.023438 461.296875 300.445312 474.53125 284.429688 496.925781 C 264.300781 470.640625 253.394531 438.660156 253.394531 404.996094 C 253.394531 364.503906 269.164062 326.433594 297.800781 297.800781 Z M 404.996094 452.757812 C 446.621094 452.757812 480.480469 418.898438 480.480469 377.273438 C 480.480469 335.652344 446.621094 301.792969 404.996094 301.792969 C 363.375 301.792969 329.515625 335.652344 329.515625 377.273438 C 329.515625 418.898438 363.375 452.757812 404.996094 452.757812 Z M 404.996094 452.757812 " fill-opacity="1" fill-rule="nonzero"/><path fill="#19202a" d="M 809.996094 405.003906 C 809.996094 628.675781 628.675781 809.996094 405.003906 809.996094 C 181.335938 809.996094 0.015625 628.675781 0.015625 405.003906 C 0.015625 181.332031 181.335938 0.015625 405.003906 0.015625 C 628.675781 0.015625 809.996094 181.332031 809.996094 405.003906 " fill-opacity="1" fill-rule="nonzero"/><path fill="#a6a6a6" d="M 548.867188 276.980469 C 548.867188 356.714844 484.222656 421.355469 404.488281 421.355469 C 324.75 421.355469 260.105469 356.714844 260.105469 276.980469 C 260.105469 197.238281 324.75 132.597656 404.488281 132.597656 C 484.222656 132.597656 548.867188 197.238281 548.867188 276.980469 " fill-opacity="1" fill-rule="nonzero"/><path fill="#a6a6a6" d="M 404.484375 790.769531 C 506.652344 790.769531 599.96875 752.921875 671.21875 690.5 C 649.101562 546.078125 583.976562 445.855469 404.484375 445.855469 C 230.035156 445.855469 162.511719 546.503906 138.789062 691.425781 C 209.90625 753.296875 302.816406 790.769531 404.484375 790.769531 " fill-opacity="1" fill-rule="nonzero"/></svg>