<svg xmlns="http://www.w3.org/2000/svg" xmlns:xlink="http://www.w3.org/1999/xlink" width="1080" zoomAndPan="magnify" viewBox="0 0 810 809.999993" height="1080" preserveAspectRatio="xMidYMid meet" version="1.0"><defs><g/><clipPath id="4b3850ec11"><path d="M 222.09375 190.785156 L 588 190.785156 L 588 558 L 222.09375 558 Z M 222.09375 190.785156 " clip-rule="nonzero"/></clipPath></defs><g clip-path="url(#4b3850ec11)"><path fill="#fb7413" d="M 587.761719 360.238281 C 587.773438 360.105469 587.746094 359.976562 587.703125 359.855469 C 587.703125 359.847656 587.707031 359.839844 587.703125 359.832031 L 551.25 264.089844 C 551.242188 264.078125 551.230469 264.070312 551.222656 264.058594 C 551.164062 263.914062 551.078125 263.78125 550.953125 263.683594 L 470.785156 199.902344 C 470.660156 199.800781 470.507812 199.730469 470.339844 199.699219 C 470.328125 199.699219 470.316406 199.695312 470.304688 199.695312 L 404.871094 190.796875 C 404.742188 190.78125 404.605469 190.789062 404.476562 190.824219 L 373.292969 199.6875 L 372.402344 199.6875 C 372.226562 199.6875 372.058594 199.738281 371.910156 199.824219 C 371.910156 199.824219 371.910156 199.824219 371.90625 199.824219 L 371.113281 200.304688 L 294.351562 222.125 C 294.328125 222.132812 294.3125 222.152344 294.289062 222.160156 C 294.1875 222.199219 294.09375 222.253906 294.007812 222.328125 C 293.972656 222.355469 293.9375 222.378906 293.90625 222.414062 C 293.890625 222.433594 293.871094 222.441406 293.855469 222.460938 L 226.632812 309.734375 C 226.613281 309.761719 226.609375 309.792969 226.589844 309.820312 C 226.566406 309.859375 226.535156 309.894531 226.519531 309.9375 C 226.507812 309.964844 226.503906 309.992188 226.496094 310.019531 C 226.476562 310.070312 226.46875 310.125 226.460938 310.175781 C 226.453125 310.210938 226.4375 310.234375 226.4375 310.269531 L 222.203125 387.023438 C 222.199219 387.089844 222.203125 387.160156 222.214844 387.226562 L 228.410156 426.046875 C 228.417969 426.097656 228.445312 426.140625 228.460938 426.191406 C 228.472656 426.222656 228.46875 426.257812 228.484375 426.289062 C 228.488281 426.296875 228.496094 426.300781 228.5 426.3125 C 228.5 426.320312 228.5 426.332031 228.507812 426.339844 L 259.804688 485.960938 C 259.855469 486.0625 259.929688 486.15625 260.019531 486.234375 L 296.722656 518.6875 C 296.785156 518.757812 296.847656 518.8125 296.921875 518.863281 L 339.367188 547.472656 C 339.484375 547.550781 339.617188 547.601562 339.757812 547.625 L 406.347656 557.980469 L 406.359375 557.984375 C 406.367188 557.984375 406.367188 557.984375 406.371094 557.984375 C 406.421875 557.992188 406.46875 557.996094 406.519531 557.996094 C 406.519531 557.996094 406.519531 557.996094 406.523438 557.996094 C 406.585938 557.996094 406.65625 557.988281 406.71875 557.976562 C 406.71875 557.976562 406.71875 557.976562 406.722656 557.972656 C 406.722656 557.972656 406.726562 557.972656 406.726562 557.972656 C 406.726562 557.972656 406.726562 557.972656 406.730469 557.972656 C 406.730469 557.972656 406.730469 557.972656 406.734375 557.972656 C 406.738281 557.96875 406.742188 557.96875 406.75 557.96875 C 406.753906 557.96875 406.757812 557.964844 406.753906 557.964844 C 406.753906 557.964844 406.757812 557.964844 406.757812 557.964844 C 406.757812 557.964844 406.761719 557.964844 406.761719 557.964844 C 406.761719 557.964844 406.761719 557.960938 406.765625 557.960938 C 406.765625 557.960938 406.765625 557.960938 406.769531 557.960938 C 406.769531 557.964844 406.769531 557.960938 406.773438 557.960938 C 406.777344 557.957031 406.777344 557.957031 406.78125 557.957031 L 515.601562 526.152344 C 515.640625 526.140625 515.664062 526.097656 515.699219 526.082031 C 515.804688 526.035156 515.886719 525.972656 515.972656 525.894531 C 516.007812 525.859375 516.0625 525.851562 516.09375 525.808594 L 582.296875 438.488281 C 582.402344 438.347656 582.445312 438.1875 582.46875 438.027344 C 582.46875 438.007812 582.488281 437.992188 582.488281 437.976562 Z M 580.628906 437.152344 L 551.996094 444.390625 L 585.464844 365.769531 Z M 464.445312 426.011719 L 358.941406 388.882812 L 438.515625 331.574219 Z M 438.515625 328.480469 L 359.171875 276.570312 L 462.335938 247.050781 Z M 437.382812 330.027344 L 357.851562 387.308594 L 357.851562 277.996094 Z M 355.933594 387.640625 L 265.675781 343.332031 L 355.933594 278.101562 Z M 375.480469 493.863281 L 289.441406 445.644531 L 356.25 390.945312 Z M 358.140625 390.632812 L 463.867188 427.84375 L 377.457031 493.996094 Z M 465.023438 429.367188 L 470.597656 508.472656 L 379.183594 495.082031 Z M 466.253906 425.347656 L 440.371094 331.082031 L 528.394531 339.878906 Z M 529.621094 341.453125 L 549.144531 444.546875 L 467.496094 426.898438 Z M 550.707031 442.511719 L 531.40625 340.585938 L 585.53125 360.722656 Z M 529.757812 336.882812 L 465.960938 247.113281 L 549.167969 265.15625 Z M 528.148438 337.929688 L 440.320312 329.152344 L 464.113281 247.816406 Z M 358.148438 274.867188 L 373.09375 202.054688 L 461.097656 245.410156 Z M 356.171875 274.972656 L 288.667969 252.398438 L 371.023438 202.601562 Z M 354.816406 276.539062 L 265.382812 341.175781 L 287.078125 253.886719 Z M 263.277344 341.695312 L 228.789062 310.296875 L 284.652344 255.695312 Z M 285.542969 252.144531 L 236.464844 300.113281 L 292.375 227.523438 Z M 262.675781 343.742188 L 230.238281 421.304688 L 228.390625 312.523438 Z M 263.5625 346.589844 L 286.417969 444.328125 L 230.636719 425.316406 Z M 265.214844 345.238281 L 355.128906 389.378906 L 288.328125 444.074219 Z M 374.3125 495.40625 L 298.25 516.835938 L 288.953125 447.566406 Z M 376.285156 496.84375 L 404.632812 555.34375 L 300.59375 518.164062 Z M 406.878906 555.582031 L 378.449219 496.914062 L 469.171875 510.203125 Z M 472.464844 507.691406 L 466.902344 428.730469 L 548.199219 446.308594 Z M 547.878906 449.03125 L 514.820312 524.023438 L 473.566406 509.265625 Z M 551.042969 446.609375 L 579.121094 439.507812 L 519.507812 518.140625 Z M 531.304688 338.5 L 550.507812 267.53125 L 585.15625 358.539062 Z M 470.890625 202.4375 L 546.542969 262.625 L 464.820312 244.902344 Z M 404.808594 192.722656 L 456.019531 199.6875 L 380.304688 199.6875 Z M 469.074219 201.605469 L 462.984375 244.207031 L 376.519531 201.605469 Z M 287.964844 250.578125 L 295.394531 223.820312 L 364.894531 204.066406 Z M 224.121094 387.027344 L 226.882812 336.910156 L 228.164062 412.371094 Z M 261.417969 484.910156 L 236.019531 436.53125 L 291.277344 511.320312 Z M 231.949219 427.789062 L 286.875 446.507812 L 296 514.484375 Z M 304.28125 521.515625 L 396.667969 554.53125 L 340.257812 545.757812 Z M 471.792969 510.667969 L 512.234375 525.140625 L 411.523438 554.574219 Z M 471.792969 510.667969 " fill-opacity="1" fill-rule="nonzero"/></g><g fill="#ffffff" fill-opacity="1"><g transform="translate(0.0000035, 408.235211)"><g><path d="M 85.859375 -98.40625 C 85.859375 -97.863281 85.769531 -97.457031 85.59375 -97.1875 L 56.484375 -39.09375 L 56.484375 -2.703125 C 56.484375 -1.984375 56.234375 -1.351562 55.734375 -0.8125 C 55.242188 -0.269531 54.640625 0 53.921875 0 L 35.859375 0 C 35.140625 0 34.550781 -0.269531 34.09375 -0.8125 C 33.644531 -1.351562 33.421875 -1.984375 33.421875 -2.703125 L 33.421875 -39.09375 L 4.3125 -97.1875 C 4.132812 -97.457031 4.046875 -97.863281 4.046875 -98.40625 C 4.046875 -99.570312 4.71875 -100.15625 6.0625 -100.15625 L 25.875 -100.15625 C 26.59375 -100.15625 27.128906 -99.929688 27.484375 -99.484375 C 27.847656 -99.035156 28.164062 -98.492188 28.4375 -97.859375 L 45.015625 -61.46875 L 61.46875 -97.859375 C 61.738281 -98.492188 62.097656 -99.035156 62.546875 -99.484375 C 62.992188 -99.929688 63.53125 -100.15625 64.15625 -100.15625 L 83.84375 -100.15625 C 85.1875 -100.15625 85.859375 -99.570312 85.859375 -98.40625 Z M 85.859375 -98.40625 "/></g></g></g><g fill="#ffffff" fill-opacity="1"><g transform="translate(90.04398, 408.235211)"><g><path d="M 73.46875 -33.828125 C 73.46875 -23.140625 70.585938 -14.625 64.828125 -8.28125 C 59.078125 -1.945312 50.722656 1.21875 39.765625 1.21875 C 28.890625 1.21875 20.53125 -1.945312 14.6875 -8.28125 C 8.851562 -14.625 5.9375 -23.140625 5.9375 -33.828125 L 5.9375 -43.265625 C 5.9375 -53.960938 8.851562 -62.476562 14.6875 -68.8125 C 20.53125 -75.144531 28.890625 -78.3125 39.765625 -78.3125 C 50.722656 -78.3125 59.078125 -75.144531 64.828125 -68.8125 C 70.585938 -62.476562 73.46875 -53.960938 73.46875 -43.265625 Z M 51.765625 -33.828125 L 51.765625 -43.265625 C 51.765625 -54.234375 47.765625 -59.71875 39.765625 -59.71875 C 31.679688 -59.71875 27.640625 -54.234375 27.640625 -43.265625 L 27.640625 -33.828125 C 27.640625 -22.773438 31.679688 -17.25 39.765625 -17.25 C 47.765625 -17.25 51.765625 -22.773438 51.765625 -33.828125 Z M 51.765625 -33.828125 "/></g></g></g><g fill="#ffffff" fill-opacity="1"><g transform="translate(169.439048, 408.235211)"><g><path d="M 73.734375 -33.03125 C 73.734375 -26.738281 72.898438 -21.5 71.234375 -17.3125 C 69.578125 -13.132812 67.441406 -9.785156 64.828125 -7.265625 C 62.222656 -4.753906 59.4375 -2.890625 56.46875 -1.671875 C 53.507812 -0.460938 50.703125 0.316406 48.046875 0.671875 C 45.398438 1.035156 43.222656 1.21875 41.515625 1.21875 L 39.625 1.21875 C 37.914062 1.21875 35.734375 1.035156 33.078125 0.671875 C 30.429688 0.316406 27.625 -0.460938 24.65625 -1.671875 C 21.695312 -2.890625 18.914062 -4.753906 16.3125 -7.265625 C 13.707031 -9.785156 11.570312 -13.132812 9.90625 -17.3125 C 8.238281 -21.5 7.40625 -26.738281 7.40625 -33.03125 L 7.40625 -74.40625 C 7.40625 -75.125 7.648438 -75.773438 8.140625 -76.359375 C 8.640625 -76.941406 9.25 -77.234375 9.96875 -77.234375 L 26.5625 -77.234375 C 27.28125 -77.234375 27.90625 -76.941406 28.4375 -76.359375 C 28.976562 -75.773438 29.25 -75.125 29.25 -74.40625 L 29.25 -33.03125 C 29.25 -26.644531 30.191406 -22.414062 32.078125 -20.34375 C 33.960938 -18.28125 36.476562 -17.25 39.625 -17.25 L 41.515625 -17.25 C 44.660156 -17.25 47.175781 -18.28125 49.0625 -20.34375 C 50.945312 -22.414062 51.890625 -26.644531 51.890625 -33.03125 L 51.890625 -74.40625 C 51.890625 -75.125 52.160156 -75.773438 52.703125 -76.359375 C 53.242188 -76.941406 53.875 -77.234375 54.59375 -77.234375 L 71.171875 -77.234375 C 71.890625 -77.234375 72.492188 -76.941406 72.984375 -76.359375 C 73.484375 -75.773438 73.734375 -75.125 73.734375 -74.40625 Z M 73.734375 -33.03125 "/></g></g></g><g fill="#ffffff" fill-opacity="1"><g transform="translate(250.586475, 408.235211)"><g><path d="M 70.09375 -4.171875 C 70.09375 -3.273438 69.84375 -2.601562 69.34375 -2.15625 C 68.851562 -1.707031 68.113281 -1.347656 67.125 -1.078125 C 65.6875 -0.628906 63.171875 -0.132812 59.578125 0.40625 C 55.984375 0.945312 51.804688 1.21875 47.046875 1.21875 C 41.921875 1.21875 36.976562 0.476562 32.21875 -1 C 27.457031 -2.488281 23.1875 -4.894531 19.40625 -8.21875 C 15.632812 -11.539062 12.644531 -15.941406 10.4375 -21.421875 C 8.238281 -26.910156 7.140625 -33.65625 7.140625 -41.65625 L 7.140625 -58.640625 C 7.140625 -66.640625 8.238281 -73.378906 10.4375 -78.859375 C 12.644531 -84.335938 15.632812 -88.71875 19.40625 -92 C 23.1875 -95.28125 27.457031 -97.660156 32.21875 -99.140625 C 36.976562 -100.628906 41.921875 -101.375 47.046875 -101.375 C 51.804688 -101.375 55.984375 -101.101562 59.578125 -100.5625 C 63.171875 -100.019531 65.6875 -99.523438 67.125 -99.078125 C 68.113281 -98.804688 68.851562 -98.488281 69.34375 -98.125 C 69.84375 -97.769531 70.09375 -97.097656 70.09375 -96.109375 L 70.09375 -83.03125 C 70.09375 -81.238281 69.238281 -80.34375 67.53125 -80.34375 C 67.4375 -80.34375 67.367188 -80.34375 67.328125 -80.34375 C 67.285156 -80.34375 67.21875 -80.34375 67.125 -80.34375 C 64.613281 -80.519531 61.582031 -80.742188 58.03125 -81.015625 C 54.476562 -81.285156 50.859375 -81.421875 47.171875 -81.421875 C 44.117188 -81.421875 41.3125 -80.769531 38.75 -79.46875 C 36.1875 -78.164062 34.164062 -75.875 32.6875 -72.59375 C 31.207031 -69.3125 30.46875 -64.660156 30.46875 -58.640625 L 30.46875 -41.65625 C 30.46875 -35.71875 31.207031 -31.085938 32.6875 -27.765625 C 34.164062 -24.441406 36.1875 -22.128906 38.75 -20.828125 C 41.3125 -19.523438 44.117188 -18.875 47.171875 -18.875 C 50.859375 -18.875 54.476562 -19.007812 58.03125 -19.28125 C 61.582031 -19.550781 64.613281 -19.773438 67.125 -19.953125 C 67.21875 -19.953125 67.285156 -19.953125 67.328125 -19.953125 C 67.367188 -19.953125 67.4375 -19.953125 67.53125 -19.953125 C 69.238281 -19.953125 70.09375 -19.050781 70.09375 -17.25 Z M 70.09375 -4.171875 "/></g></g></g><g fill="#ffffff" fill-opacity="1"><g transform="translate(326.207244, 408.235211)"><g><path d="M 72.515625 -6.203125 C 72.515625 -5.117188 72.265625 -4.304688 71.765625 -3.765625 C 71.273438 -3.234375 70.132812 -2.742188 68.34375 -2.296875 C 64.476562 -1.390625 60.050781 -0.578125 55.0625 0.140625 C 50.070312 0.859375 44.972656 1.21875 39.765625 1.21875 C 28.890625 1.21875 20.53125 -1.8125 14.6875 -7.875 C 8.851562 -13.945312 5.9375 -22.421875 5.9375 -33.296875 L 5.9375 -43.8125 C 5.9375 -54.769531 8.851562 -63.257812 14.6875 -69.28125 C 20.53125 -75.300781 28.890625 -78.3125 39.765625 -78.3125 C 44.972656 -78.3125 50.070312 -77.972656 55.0625 -77.296875 C 60.050781 -76.628906 64.476562 -75.800781 68.34375 -74.8125 C 70.132812 -74.445312 71.273438 -73.972656 71.765625 -73.390625 C 72.265625 -72.804688 72.515625 -71.976562 72.515625 -70.90625 Z M 50.8125 -17.53125 L 50.8125 -59.578125 C 47.9375 -60.023438 44.253906 -60.25 39.765625 -60.25 C 35.003906 -60.25 31.789062 -58.695312 30.125 -55.59375 C 28.46875 -52.5 27.640625 -48.570312 27.640625 -43.8125 L 27.640625 -33.296875 C 27.640625 -28.535156 28.46875 -24.582031 30.125 -21.4375 C 31.789062 -18.289062 35.003906 -16.71875 39.765625 -16.71875 C 42.015625 -16.71875 44.101562 -16.804688 46.03125 -16.984375 C 47.96875 -17.160156 49.5625 -17.34375 50.8125 -17.53125 Z M 50.8125 -17.53125 "/></g></g></g><g fill="#ffffff" fill-opacity="1"><g transform="translate(406.815505, 408.235211)"><g><path d="M 73.734375 -2.828125 C 73.734375 -2.109375 73.484375 -1.457031 72.984375 -0.875 C 72.492188 -0.289062 71.890625 0 71.171875 0 L 54.59375 0 C 53.875 0 53.242188 -0.289062 52.703125 -0.875 C 52.160156 -1.457031 51.890625 -2.109375 51.890625 -2.828125 L 51.890625 -50.28125 C 51.890625 -53.25 51.441406 -55.675781 50.546875 -57.5625 C 49.648438 -59.445312 47.445312 -60.390625 43.9375 -60.390625 L 37.203125 -60.390625 C 33.703125 -60.390625 31.5 -59.445312 30.59375 -57.5625 C 29.695312 -55.675781 29.25 -53.25 29.25 -50.28125 L 29.25 -2.828125 C 29.25 -2.109375 28.976562 -1.457031 28.4375 -0.875 C 27.90625 -0.289062 27.28125 0 26.5625 0 L 9.96875 0 C 9.25 0 8.640625 -0.289062 8.140625 -0.875 C 7.648438 -1.457031 7.40625 -2.109375 7.40625 -2.828125 L 7.40625 -50.28125 C 7.40625 -59.625 9.941406 -66.628906 15.015625 -71.296875 C 20.097656 -75.972656 27.492188 -78.3125 37.203125 -78.3125 L 43.9375 -78.3125 C 53.644531 -78.3125 61.035156 -75.972656 66.109375 -71.296875 C 71.191406 -66.628906 73.734375 -59.625 73.734375 -50.28125 Z M 73.734375 -2.828125 "/></g></g></g><g fill="#ffffff" fill-opacity="1"><g transform="translate(487.962931, 408.235211)"><g><path d="M 88.828125 -2.703125 C 88.828125 -1.984375 88.554688 -1.351562 88.015625 -0.8125 C 87.484375 -0.269531 86.859375 0 86.140625 0 L 68.484375 0 C 67.753906 0 67.117188 -0.269531 66.578125 -0.8125 C 66.046875 -1.351562 65.78125 -1.984375 65.78125 -2.703125 L 65.78125 -41.65625 L 32.484375 -41.65625 L 32.484375 -2.703125 C 32.484375 -1.984375 32.210938 -1.351562 31.671875 -0.8125 C 31.140625 -0.269531 30.515625 0 29.796875 0 L 12.125 0 C 11.40625 0 10.773438 -0.269531 10.234375 -0.8125 C 9.703125 -1.351562 9.4375 -1.984375 9.4375 -2.703125 L 9.4375 -97.59375 C 9.4375 -98.3125 9.703125 -98.914062 10.234375 -99.40625 C 10.773438 -99.90625 11.40625 -100.15625 12.125 -100.15625 L 29.796875 -100.15625 C 30.515625 -100.15625 31.140625 -99.90625 31.671875 -99.40625 C 32.210938 -98.914062 32.484375 -98.3125 32.484375 -97.59375 L 32.484375 -61.734375 L 65.78125 -61.734375 L 65.78125 -97.59375 C 65.78125 -98.3125 66.046875 -98.914062 66.578125 -99.40625 C 67.117188 -99.90625 67.753906 -100.15625 68.484375 -100.15625 L 86.140625 -100.15625 C 86.859375 -100.15625 87.484375 -99.90625 88.015625 -99.40625 C 88.554688 -98.914062 88.828125 -98.3125 88.828125 -97.59375 Z M 88.828125 -2.703125 "/></g></g></g><g fill="#ffffff" fill-opacity="1"><g transform="translate(586.229492, 408.235211)"><g><path d="M 72.515625 -6.203125 C 72.515625 -5.117188 72.265625 -4.304688 71.765625 -3.765625 C 71.273438 -3.234375 70.132812 -2.742188 68.34375 -2.296875 C 64.476562 -1.390625 60.050781 -0.578125 55.0625 0.140625 C 50.070312 0.859375 44.972656 1.21875 39.765625 1.21875 C 28.890625 1.21875 20.53125 -1.8125 14.6875 -7.875 C 8.851562 -13.945312 5.9375 -22.421875 5.9375 -33.296875 L 5.9375 -43.8125 C 5.9375 -54.769531 8.851562 -63.257812 14.6875 -69.28125 C 20.53125 -75.300781 28.890625 -78.3125 39.765625 -78.3125 C 44.972656 -78.3125 50.070312 -77.972656 55.0625 -77.296875 C 60.050781 -76.628906 64.476562 -75.800781 68.34375 -74.8125 C 70.132812 -74.445312 71.273438 -73.972656 71.765625 -73.390625 C 72.265625 -72.804688 72.515625 -71.976562 72.515625 -70.90625 Z M 50.8125 -17.53125 L 50.8125 -59.578125 C 47.9375 -60.023438 44.253906 -60.25 39.765625 -60.25 C 35.003906 -60.25 31.789062 -58.695312 30.125 -55.59375 C 28.46875 -52.5 27.640625 -48.570312 27.640625 -43.8125 L 27.640625 -33.296875 C 27.640625 -28.535156 28.46875 -24.582031 30.125 -21.4375 C 31.789062 -18.289062 35.003906 -16.71875 39.765625 -16.71875 C 42.015625 -16.71875 44.101562 -16.804688 46.03125 -16.984375 C 47.96875 -17.160156 49.5625 -17.34375 50.8125 -17.53125 Z M 50.8125 -17.53125 "/></g></g></g><g fill="#ffffff" fill-opacity="1"><g transform="translate(666.837753, 408.235211)"><g><path d="M 58.234375 -3.90625 C 58.234375 -2.914062 58.007812 -2.21875 57.5625 -1.8125 C 57.113281 -1.414062 56.394531 -1.082031 55.40625 -0.8125 C 53.519531 -0.363281 51.070312 0.0820312 48.0625 0.53125 C 45.050781 0.988281 41.519531 1.21875 37.46875 1.21875 C 27.945312 1.21875 20.332031 -1.722656 14.625 -7.609375 C 8.914062 -13.492188 6.0625 -21.921875 6.0625 -32.890625 L 6.0625 -44.21875 C 6.0625 -55.175781 8.914062 -63.597656 14.625 -69.484375 C 20.332031 -75.367188 27.945312 -78.3125 37.46875 -78.3125 C 41.519531 -78.3125 45.050781 -78.085938 48.0625 -77.640625 C 51.070312 -77.191406 53.519531 -76.742188 55.40625 -76.296875 C 56.394531 -76.023438 57.113281 -75.6875 57.5625 -75.28125 C 58.007812 -74.875 58.234375 -74.175781 58.234375 -73.1875 L 58.234375 -61.203125 C 58.234375 -60.566406 57.984375 -60.023438 57.484375 -59.578125 C 56.992188 -59.128906 56.390625 -58.90625 55.671875 -58.90625 C 55.671875 -58.90625 55.644531 -58.90625 55.59375 -58.90625 C 55.550781 -58.90625 55.488281 -58.90625 55.40625 -58.90625 C 52.882812 -59.175781 50.476562 -59.398438 48.1875 -59.578125 C 45.894531 -59.753906 42.816406 -59.84375 38.953125 -59.84375 C 35.898438 -59.84375 33.296875 -58.742188 31.140625 -56.546875 C 28.984375 -54.347656 27.90625 -50.238281 27.90625 -44.21875 L 27.90625 -32.890625 C 27.90625 -26.867188 28.984375 -22.753906 31.140625 -20.546875 C 33.296875 -18.347656 35.898438 -17.25 38.953125 -17.25 C 42.816406 -17.25 45.894531 -17.335938 48.1875 -17.515625 C 50.476562 -17.703125 52.882812 -17.929688 55.40625 -18.203125 C 55.488281 -18.203125 55.550781 -18.203125 55.59375 -18.203125 C 55.644531 -18.203125 55.671875 -18.203125 55.671875 -18.203125 C 56.390625 -18.203125 56.992188 -18 57.484375 -17.59375 C 57.984375 -17.1875 58.234375 -16.625 58.234375 -15.90625 Z M 58.234375 -3.90625 "/></g></g></g><g fill="#ffffff" fill-opacity="1"><g transform="translate(730.731204, 408.235211)"><g><path d="M 75.21875 -75.75 C 75.21875 -75.300781 75.035156 -74.851562 74.671875 -74.40625 L 49.609375 -40.296875 L 74.546875 -2.828125 C 74.722656 -2.648438 74.8125 -2.289062 74.8125 -1.75 C 74.8125 -0.582031 74.226562 0 73.0625 0 L 52.703125 0 C 51.984375 0 51.375 -0.109375 50.875 -0.328125 C 50.382812 -0.554688 49.867188 -1.078125 49.328125 -1.890625 L 29.921875 -33.5625 L 29.921875 -2.828125 C 29.921875 -2.109375 29.648438 -1.457031 29.109375 -0.875 C 28.578125 -0.289062 27.953125 0 27.234375 0 L 10.921875 0 C 10.203125 0 9.550781 -0.289062 8.96875 -0.875 C 8.382812 -1.457031 8.09375 -2.109375 8.09375 -2.828125 L 8.09375 -100.6875 C 8.09375 -101.40625 8.382812 -102.035156 8.96875 -102.578125 C 9.550781 -103.117188 10.203125 -103.390625 10.921875 -103.390625 L 27.234375 -103.390625 C 27.953125 -103.390625 28.578125 -103.117188 29.109375 -102.578125 C 29.648438 -102.035156 29.921875 -101.40625 29.921875 -100.6875 L 29.921875 -44.34375 L 50.40625 -75.21875 C 50.945312 -76.03125 51.53125 -76.566406 52.15625 -76.828125 C 52.789062 -77.097656 53.378906 -77.234375 53.921875 -77.234375 L 73.1875 -77.234375 C 74.539062 -77.234375 75.21875 -76.738281 75.21875 -75.75 Z M 75.21875 -75.75 "/></g></g></g></svg>